<svg viewBox="0 0 34 33" xmlns="http://www.w3.org/2000/svg">
  <g fill="#000" fill-rule="nonzero">
    <path d="M13 26C5.832 26 0 20.168 0 13S5.832 0 13 0s13 5.832 13 13c0 7.167-5.832 13-13 13zm0-22.087c-5.01 0-9.087 4.076-9.087 9.087 0 5.01 4.077 9.086 9.087 9.086S22.087 18.01 22.087 13c0-5.011-4.077-9.087-9.087-9.087zM33.227 28.474l-7.248-7.28c-.074-.074-.157-.131-.237-.194-.86 1.504-2.04 2.908-3.742 3.667.098.151.114.144.246.276l7.248 7.28a2.628 2.628 0 0 0 3.733 0 2.66 2.66 0 0 0 0-3.749z"/>
  </g>
</svg>
