<svg viewBox="0 0 45 38" xmlns="http://www.w3.org/2000/svg">
  <path d="M16.784 37.095c.666.055 1.33.11 1.94.11a18.98 18.98 0 0 0 14.469-6.733l-3.437-2.792a14.387 14.387 0 0 1-12.528 5.091c-7.872-.821-13.581-7.773-12.75-15.49C5.31 9.507 12.35 3.87 20.166 4.69c7.15.711 12.639 6.678 12.805 13.684l-6.209-5.583-2.938 3.284 9.535 8.375c.388.383.942.547 1.497.547h.11c.61-.054 1.165-.273 1.553-.711L45 14.872l-3.326-2.901-4.324 4.762C36.408 8.193 29.48 1.187 20.665.312 10.409-.783 1.152 6.662.099 16.788c-1.053 10.126 6.43 19.267 16.685 20.307z" fill="#000" fill-rule="nonzero"/>
</svg>
